<svg id="cat" xmlns="http://www.w3.org/2000/svg" stroke-linecap="round" stroke-linejoin="round" width="256" height="256" viewBox="0 0 256 256">
  <defs>
    <style>
      .cls-1, .cls-2, .cls-5 {
        fill: none;
      }

      .cls-1, .cls-2, .cls-3, .cls-4 {
        stroke: #000;
      }

      .cls-1 {
        stroke-width: 4px;
      }

      .cls-1, .cls-2, .cls-3, .cls-4, .cls-5, .cls-6, .cls-7 {
        fill-rule: evenodd;
      }

      .cls-2, .cls-4, .cls-6, .cls-7 {
        stroke-width: 3px;
      }

      .cls-3 {
        stroke-width: 1px;
      }

      .cls-5, .cls-7 {
        stroke: #4d4b4d;
      }

      .cls-5 {
        stroke-width: 5px;
      }

      .cls-6 {
        fill: #c08911;
        stroke: #c08911;
      }

      .cls-7 {
        fill: #4d4b4d;
      }
    </style>
  </defs>
  <path id="Kształt_1" data-name="Kształt 1" class="cls-1" d="M29.915,175.706c-4.329,1.56-10.536,9.119-16.544,14.562-6.113,5.539-8.529,6.688-8.912,12.23-0.39,5.649,11.537,11.266,12.789,11.51C30.306,216.56,59.343,221.979,62,222c23.01,0.182,37.322,3.528,48.072-8.77,8.359-9.562,10.039-19.292,11.909-26.959,1.64-6.719,1.751-13.178-.981-23.271-2.421-8.941-4.609-16.583-8-23-6.509-12.318-15.674-19.925-20-22s-13.219-3.985-24-3c-11.34,1.036-19.979,3.555-27,7-5.529,2.713-9.16,5.374-15,5-9.441-.605-16.431-11.228-22-9-2.377.951-.872,5.774-0.309,7.9,1.978,7.471,5.862,8.069,6.14,15.052,0.23,5.777,2,18.166,1.6,18.738-0.856,6.487,3.428,27.137,3.742,25.891"/>
  <path id="Kształt_2" data-name="Kształt 2" class="cls-1" d="M139,191c-5.715-2.279-10.378-1.8-12-1-2.83,1.394-4.82,4.287-6,8a17.378,17.378,0,0,0,0,10c1.288,4.657,5.383,9.429,13,15,7.724,5.649,13.513,7.892,17,7a11.672,11.672,0,0,0,8-7c1.209-3.387-.229-6.969-3-13-2.325-5.059-4.373-9.171-7-12A27.582,27.582,0,0,0,139,191Z"/>
  <path id="Kształt_3" data-name="Kształt 3" class="cls-1" d="M104.082,219.026A262.365,262.365,0,0,0,142,231c21.928,5.042,35.589,3.829,43-2a29.179,29.179,0,0,0,11-20,21.771,21.771,0,0,0-2-12c-2.705-5.332-7.964-8.979-14-11a34.2,34.2,0,0,0-14-1,44.562,44.562,0,0,0-15,5,51.309,51.309,0,0,0-5,3"/>
  <path id="Kształt_7" data-name="Kształt 7" class="cls-2" d="M82,85c-2.052-3.314-10.274-3.092-14,1a7.036,7.036,0,0,0-2,5c0.14,1.943,1.279,3.175,3,5,2.254,2.391,3.695,4.043,5,4,1.543-.051,3.1-1.591,5-5C81.839,89.9,82.735,86.187,82,85Z"/>
  <path id="Kształt_8" data-name="Kształt 8" class="cls-2" d="M97,95c-1.526-.663-3.507-0.1-4,1-0.7,1.576,1.465,4.615,3.618,4.359A2.829,2.829,0,0,0,99,98,3.1,3.1,0,0,0,97,95Z"/>
  <path id="Kształt_9" data-name="Kształt 9" class="cls-2" d="M64,98c-1.646-2.047-6.27-1.1-7,1a3.189,3.189,0,0,0,1,3c1.556,1.564,4.663,1.772,6,0A3.431,3.431,0,0,0,64,98Z"/>
  <path id="Kształt_10" data-name="Kształt 10" class="cls-2" d="M63,83c-1.41-3.334-9.866-3.4-11-1-0.669,1.414,1.137,3.839,3,5,1.916,1.194,5.169,1.835,7,0A3.9,3.9,0,0,0,63,83Z"/>
  <path id="Kształt_11" data-name="Kształt 11" class="cls-2" d="M67,72c-0.662-2.151-3.219-3.807-5-3-1.584.718-2.032,3.15-1.461,4.888C61.146,75.734,63.152,77.557,65,77,66.818,76.452,67.577,73.874,67,72Z"/>
  <path id="Kształt_12" data-name="Kształt 12" class="cls-2" d="M78,68a3.345,3.345,0,0,0-3,2,3.812,3.812,0,0,0,2,5,3.487,3.487,0,0,0,4-1C82.352,72.029,80.4,68.14,78,68Z"/>
  <path id="Kształt_4" data-name="Kształt 4" class="cls-1" d="M196,215c11.5,2.52,21.835,1.7,29-4,8.883-7.063,11.393-20.709,12-26,0.343-2.99.718-8.914,5-13,2.7-2.576,5.033-3.7,7-4,1.686-.258,3.006-0.019,4-1,1.488-1.469.608-4.057,0-8-0.4-2.621-.213-5.125-1-8a59.049,59.049,0,0,0-3-7,7.455,7.455,0,0,0-9-5c-2.092.32-3.35,1.238-5,2-3.9,1.8-7.365.417-11,1-2.613.419-6,2.169-10,2a20.211,20.211,0,0,1-6.261-1.333C199.239,139.475,192,130.3,191,120a27.685,27.685,0,0,1,4-17c2.923-4.71,12.165-10.183,12-16-0.082-2.867-2.633-4.584-2-8,0.4-2.134,1.841-2.852,2-5,0.186-2.52-1.725-4.5-5-8-1.992-2.132-3.3-3.58-5-4-2.39-.591-5.652.169-10,4-3.389,2.985-4.994,6.051-7,10a60.886,60.886,0,0,1-7,11,19.459,19.459,0,0,1-6,5,19.213,19.213,0,0,1-6,2c-9.049,1.529-17.029-2.38-27,0-4.175,1-6.482,2.5-11,2-4.193-.467-6.075-2.216-10-4-2.688-1.222-9.279-2.73-15-4a25.308,25.308,0,0,1-9-4,18.991,18.991,0,0,1-6-7c-1.816-4.261.078-9.876-3-13a6.68,6.68,0,0,0-5-2c-2.48.179-3.849,2.281-6,3-1.91.638-3.508,0.172-6,0-5.473-.378-9.041.8-10,2-1.347,1.681-.476,3.226-2,5-1.589,1.849-3.478,1.271-5,3-1.421,1.614-1.5,4.029-1,7,0.885,5.284,2.694,10.054,4,12,0.836,1.246,2.069,2.8,2,5-0.056,1.77-1.5,3.41-1,5,0.531,1.688,2.783,2.489,5,3,3.19,0.735,10.506.559,15,3,1.081,0.587,1.9,2.709,3.076,3.714"/>
  <path id="Kształt_5" data-name="Kształt 5" class="cls-1" d="M100,122c9.741,0.638,17.818,2.864,24,7,1.858,1.243,5.836,4.19,11.006,3.858,3.615-.232,6.954-2.009,9.994-4.858"/>
  <path id="Kształt_6" data-name="Kształt 6" class="cls-2" d="M158,218c0.119-.588-8.983,8.368-12,6"/>
  <path id="Kształt_6_kopia" data-name="Kształt 6 kopia" class="cls-2" d="M151.844,206.578c-2.952-.372-13.239,7.536-13.956,8.972"/>
  <path id="Kształt_6_kopia_2" data-name="Kształt 6 kopia 2" class="cls-2" d="M140.567,193.44c-2.948.4-10.838,10.705-11.16,12.277"/>
  <path id="Kształt_13" data-name="Kształt 13" class="cls-2" d="M204,81s-8.517.587-9,3"/>
  <path id="Kształt_13_kopia" data-name="Kształt 13 kopia" class="cls-2" d="M204.87,78.212c-1.006-7.2-9.414-4.016-9.87-1.462"/>
  <path id="Kształt_13_kopia_2" data-name="Kształt 13 kopia 2" class="cls-2" d="M204,70.212c-1.006-7.2-9.414-4.016-9.87-1.462"/>
  <path id="Kształt_13_kopia_3" data-name="Kształt 13 kopia 3" class="cls-2" d="M250.563,147.905c-0.987-7.142-8.929-2.485-9.871-1.462"/>
  <path id="Kształt_13_kopia_4" data-name="Kształt 13 kopia 4" class="cls-2" d="M253,157.538c-0.987-7.143-8.928-2.485-9.87-1.462"/>
  <path id="Kształt_14" data-name="Kształt 14" class="cls-3" d="M75,159c-4.253-.675-7.589,2.341-9,5a8.908,8.908,0,0,0-.434,7.749A7.794,7.794,0,0,0,70,176c2.905,0.976,5.972-.488,8-2,2.291-1.707,3.866-3.861,4.043-6.3A8.549,8.549,0,0,0,75,159Z"/>
  <path id="Kształt_15" data-name="Kształt 15" class="cls-3" d="M66,125c-3,.837-4.7,2.185-5,3-0.981,2.638,2.079,6.229,5.015,7.8A10.1,10.1,0,0,0,75,136c1.116-.527,5.32-2.785,5-6-0.233-2.339-2.919-3.962-6-5A13.229,13.229,0,0,0,66,125Z"/>
  <path id="Kształt_16" data-name="Kształt 16" class="cls-3" d="M91,135c-1.148,2.227-3.366,8.894,0,9,2.491,0.079,6.77-3.022,7-3C101.054,141.286,91.115,134.776,91,135Z"/>
  <path id="Kształt_17" data-name="Kształt 17" class="cls-2" d="M108,152c-1.363-4.346-3.013-7.917-5-9a1.9,1.9,0,0,1-1-1c-0.356-1.095,1-2.114,2-4a9.849,9.849,0,0,0,1-3"/>
  <path id="Kształt_38" data-name="Kształt 38" class="cls-2" d="M84.075,182.2c-1.617,4.979-1.8,10.379.925,12.8a7.087,7.087,0,0,0,3.972,1.034c0.132-.121-0.464-5-0.546-5.919C87.957,184.834,89.6,181.067,90,181c0.43-.071,1.346,4.621,3.249,10.539,1.044,3.247,7.915,7.777,7.639,6.386-0.4-1.993-1.564-8.238-.375-12.536a50.592,50.592,0,0,1,2.1-4.965"/>
  <path id="Kształt_39" data-name="Kształt 39" class="cls-4" d="M13.979,174.058c3.86-3.595,20.6-3.465,20.56-5.671-0.042-2.29-6.164-3.556-9.076-3.875-3.873-.425-11.38-0.129-12.9,3.875C11.849,170.26,12.523,175.414,13.979,174.058Z"/>
  <path id="Kształt_39_kopia" data-name="Kształt 39 kopia" class="cls-4" d="M12.893,161.015c4.3-4.009,22.971-3.865,22.926-6.325-0.047-2.553-6.873-3.964-10.12-4.32-4.318-.474-12.689-0.144-14.387,4.32C10.518,156.779,11.269,162.527,12.893,161.015Z"/>
  <path id="Kształt_39_kopia_2" data-name="Kształt 39 kopia 2" class="cls-4" d="M15.113,172.307c4.158-3.462,21.295-2.375,21.379-4.637,0.087-2.347-6.11-3.992-9.074-4.485-3.942-.656-11.647-0.781-13.434,3.232C13.148,168.3,13.545,173.613,15.113,172.307Z"/>
  <path id="Kształt_39_kopia_3" data-name="Kształt 39 kopia 3" class="cls-4" d="M13.227,147.1c3.933-3.316,20.233-2.383,20.3-4.534,0.069-2.232-5.832-3.76-8.653-4.211-3.752-.6-11.078-0.674-12.754,3.152C11.335,143.3,11.743,148.355,13.227,147.1Z"/>
  <path id="Kształt_18" data-name="Kształt 18" class="cls-5" d="M36.146,125.467c-3.477-3.547-22.883,51.183-20.88,53.841"/>
  <path id="Kształt_19" data-name="Kształt 19" class="cls-5" d="M14.821,179.4C14.869,179.3,45.348,150.722,44,147c0.9-1.576,8.709-23.432,5.773-28.795"/>
  <path id="Kształt_20" data-name="Kształt 20" class="cls-5" d="M40,122l7,31s3.182,14.5,4,16c1.5,1.907,7.109,13.112,10,16,1.529,2.207,4.812,17.017,4.812,17.017,0.5,2.195-.037,10.6.188,11.983s-5,9-5,9l-12,5-11,1-6,4"/>
  <path id="Kształt_21" data-name="Kształt 21" class="cls-5" d="M14,214s-9.316,7.229-7,9,23.192-.581,25.059.577c1.658,1.028,20.963,3.921,22.16,4.369L83,229l26-3,12-3,4-6"/>
  <path id="Kształt_22" data-name="Kształt 22" class="cls-5" d="M135.413,187.693C136.471,187.978,123.965,149.011,124,149l-9-22s-9.319-35.365-10-37-11.961-5.018-9.251-4"/>
  <path id="Kształt_23" data-name="Kształt 23" class="cls-5" d="M67.129,65.258C65.94,64.6,77,90.974,77,91"/>
  <path id="Kształt_24" data-name="Kształt 24" class="cls-5" d="M117,124l13-14s3.9-11.311,3-13-7.4-4.944-10.393-3.481C119.589,94.993,125,108,125,108s9.383,20.326,10,21,11,26,11,26"/>
  <path id="Kształt_25" data-name="Kształt 25" class="cls-5" d="M134,96s25.322,19.17,25,20,13,32,13,32,14.889,29.289,16,31,11.585,18.871,11.652,19.418c0.093,0.76.537,18.1-.647,18.606"/>
  <path id="Kształt_26" data-name="Kształt 26" class="cls-5" d="M149,192s26.187,21.424,26,23c0.983,1.363,2.733,12.185,1,14s-13.257,5.082-14,5c-0.7-.078-7.532-0.611-7.9-2.891"/>
  <path id="Kształt_27" data-name="Kształt 27" class="cls-5" d="M153,188s22.208,9.115,23,12c1.962,0.332,8.329,12.078,9,13s5.532,10.405,5,12"/>
  <path id="Kształt_28" data-name="Kształt 28" class="cls-5" d="M162.471,185.38c-2.885.852,16.146,2.855,17.529,5.62,3.83,1.572,14.775,20.04,14.729,18.776"/>
  <path id="Kształt_29" data-name="Kształt 29" class="cls-5" d="M138,94l36,19,18,26,12,19s8.893,18.34,10,20,13,15,13,15l12,9,7,6c0.21-.189,6.671,7.727,6.036,9.2-1.322,3.072-7.119,1.635-8.036,1.8s-14-4-14-4l-8-1"/>
  <path id="Kształt_30" data-name="Kształt 30" class="cls-5" d="M240.652,138.906c-2.238.863-1.654,8.142-1.652,9.094,0,0.988-.166,13.206.981,15.971C240.641,165.562,243,175,243,175"/>
  <path id="Kształt_31" data-name="Kształt 31" class="cls-5" d="M153.169,94.307c2.746-1.363,19.79,7.713,19.831,7.693l14,12c0.021,0.018,6.243,7.709,5.178,8.153"/>
  <path id="Kształt_32" data-name="Kształt 32" class="cls-5" d="M186.214,65.44c-1.7,2.219-.28,10.746.786,12.56,1.051,1.788,6.091,12.719,6,14s7,14,7,14,5.82,13.213,6,14,2.132,12.977,2,14-1.938,8.05-2,9-7,18-7,18-0.182,13.2,0,14,4.2,10.1,4,11,2.027,10.555,2,12,4,10,4,10,17.1,8.529,18,10,8.243,4.695,9,5c3.411,1.373,2.826,5.8,0,5l-10-1H212s-8.63.049-10,0-10,2-10,2l-1,4,5,2h8"/>
  <path id="Kształt_40" data-name="Kształt 40" class="cls-6" d="M24,232l-5,2a5.018,5.018,0,0,0-1,2.983c0,0.071,1,5.017,1,5.017l2,1,4-1Z"/>
  <path id="Kształt_41" data-name="Kształt 41" class="cls-6" d="M143,169l1,3h3l3-2v-1l1-3Z"/>
  <path id="Kształt_42" data-name="Kształt 42" class="cls-6" d="M74,102v3s3.519-.065,4,0,5,0,5,0,1.5-2.207.357-3.352C82.314,100.607,74,102,74,102Z"/>
  <path id="Kształt_43" data-name="Kształt 43" class="cls-6" d="M241,180l-1,4s2.449,1.837,2,2,4,1,4,1h2l-1-4Z"/>
  <path id="Kształt_44" data-name="Kształt 44" class="cls-6" d="M212,238h4l1-2v-5h-2l-1,2-2,3v2Z"/>
  <path id="Kształt_33" data-name="Kształt 33" class="cls-7" d="M143,156l-1,4v4l1,4,5-1,3-2-2-4-2-6Z"/>
  <path id="Kształt_34" data-name="Kształt 34" class="cls-7" d="M202.973,237.531s7.726,2.028,8,1,1-4,1-4l2-5-6,1-4,2Z"/>
  <path id="Kształt_35" data-name="Kształt 35" class="cls-7" d="M245,175c-1.268-.7-4,1-4,1l-1,4,2,2,6,2S246.268,175.7,245,175Z"/>
  <path id="Kształt_36" data-name="Kształt 36" class="cls-7" d="M33,235l-4,5s-3.275,1.644-4,2c-0.784.385-1.424-2.369-2-3v-6l1-2h8Z"/>
  <path id="Kształt_37" data-name="Kształt 37" class="cls-7" d="M76,90l-2,6,1,5,5,1,4-1-2-6-4-5H76Z"/>
</svg>
