<svg xmlns="http://www.w3.org/2000/svg" stroke-width="1.5" width="80" height="80" viewBox="0 0 512 512">
  <defs>
    <style>
      .cls-1 {
        fill: none;
      }

      .cls-1, .cls-2 {
        stroke: #000;
        stroke-width: 5px;
        fill-rule: evenodd;
      }
    </style>
  </defs>
  <path id="Kształt_1" data-name="Kształt 1" class="cls-1" d="M39.453,304.6c30.375,61.657,86.316,111.536,92.761,113.286,8.227,2.233,7.539-19.344,9.781-16.923,10.27,11.09,52.786,77.516,66.733,69.292,20.3-11.97,59.191-45.871,106.315-98.1"/>
  <path id="Kształt_2" data-name="Kształt 2" class="cls-1" d="M231.268,351.509c28.324,10.628,20.6,4.136,97.339,23.421,19.489,4.9,83.3-69.216,83.393-95.93,0.064-18.564-29.071-18.531-25.147-37.542,5.185-25.12,1.018-70.851-2.853-87.458-11.383-48.836-40.14-95.118-40.979-91.678C340.492,72.7,315.291,136.844,297,133c-35.742-7.512-77.364-4.787-80.747-9.4C181.131,75.733,97.429,42.375,110,57c47.922,55.749,39.007,102.164-11.288,139.351C47.046,234.553,10.963,291.037,10,291c-4.5-.175,48.421-42.355,48.772-44.325,1.212-6.82-51.725,80.688-51.559,89.5C7.375,344.845,22.646,310.609,40,306"/>
  <path id="Kształt_3" data-name="Kształt 3" class="cls-1" d="M110.562,52.914C112.216,82.143,102.382,108.7,94,134c-6.435,19.427-3.481,47.875-.747,67.093"/>
  <path id="Kształt_4" data-name="Kształt 4" class="cls-2" d="M218,125c0.818,1.573,20.487,40.409,21,44s2.721-41.461-6-43A63.9,63.9,0,0,0,218,125Z"/>
  <path id="Kształt_4_kopia" data-name="Kształt 4 kopia" class="cls-2" d="M256,127.094c0.9,0.382,24.655,53.5,24.462,54.622-1.034,6.008-.7-52.029-9.462-53.622A61.038,61.038,0,0,0,256,127.094Z"/>
  <path id="Kształt_4_kopia_2" data-name="Kształt 4 kopia 2" class="cls-2" d="M285.345,131.645c0.673,0.123,24.992,32.7,25.021,33.5,0.158,4.311-10.654-33.049-16.34-33.347A82.486,82.486,0,0,0,285.345,131.645Z"/>
  <path id="Kształt_5" data-name="Kształt 5" class="cls-1" d="M216.749,200.721c0.018,0.986,11.515-2.035,17.318,5.459,3.518,8.428,15.96,12.729,17.1,13.63,3.353,2.194,43.551,20.181,43.281,17.2-0.746-8.224,5.154-24.63,3.628-24.529-10.731.711-20.978-7.516-39.171-12.512C239.115,194.541,216.717,198.91,216.749,200.721Z"/>
  <path id="Kształt_17" data-name="Kształt 17" class="cls-1" d="M389.074,200.549c-0.629,2.74-5.006,5.058-19.1,9.021-4.011,1.128,1.688,13.945,2.044,26.48,0.111,3.905,23.415-11.045,16.523-13.949"/>
  <path id="Kształt_7" data-name="Kształt 7" class="cls-2" d="M344.056,281.785c4.936-3.958,39.075-4.024,43.7-2.717,4.943,1.4-20.451,35.026-24.078,31.648C355.307,302.915,341.187,284.086,344.056,281.785Z"/>
  <path id="Kształt_9" data-name="Kształt 9" class="cls-2" d="M353,344l-34,15"/>
  <path id="Kształt_10" data-name="Kształt 10" class="cls-2" d="M361,354l-8-12"/>
  <path id="Kształt_8" data-name="Kształt 8" class="cls-1" d="M363,313l-9,31"/>
  <path id="Kształt_14" data-name="Kształt 14" class="cls-1" d="M388,278c29.35-21.43,117.318-19.837,113.46-13.081"/>
  <path id="Kształt_13" data-name="Kształt 13" class="cls-1" d="M343.866,288.406c-8.342.961-151.307-4.39-176.672,17.844"/>
  <path id="Kształt_15" data-name="Kształt 15" class="cls-1" d="M387,280s84.94-14.443,107,3"/>
  <path id="Kształt_12" data-name="Kształt 12" class="cls-1" d="M345.465,285.9c-80.865-32.1-175.778-26.053-166.412-22.664"/>
  <path id="Kształt_16" data-name="Kształt 16" class="cls-1" d="M387,283c0.1,0.238,81.764,13.817,95.572,30.909"/>
  <path id="Kształt_11" data-name="Kształt 11" class="cls-1" d="M346.711,285.474c-23.625-27.276-148.083-60.333-143.522-59.016"/>
</svg>
