<svg id="laptop" xmlns="http://www.w3.org/2000/svg" width="256" height="256" stroke-linecap="round" stroke-linejoin="round" viewBox="0 0 256 256">
  <defs>
    <style>
      .cls-1 {
        fill: none;
      }

      .cls-1, .cls-2 {
        stroke: #f9f9f9;
        stroke-width: 3px;
        fill-rule: evenodd;
      }

      .cls-2 {
        fill: #f9f9f9;
      }
    </style>
  </defs>
  <path id="Kształt_1" data-name="Kształt 1" class="cls-1" d="M71.177,92.056c0.584,5.387-2.019,15-6.177,17.944-2.178,1.541-5.839,4.824-5.279,5.509,0.447,0.547,6.305-2.408,6.365-.791C66.271,119.749,60.4,126.374,62,128c0.736,0.751,4.373-.586,5.351-0.56,2.777,0.075,5.353,4.4,7.4,8.338"/>
  <path id="Kształt_2" data-name="Kształt 2" class="cls-1" d="M72,94c-2.48-15.059-4.919-33.9-1-35,2.909-.816,8.368,12.05,13,18.973"/>
  <path id="Kształt_3" data-name="Kształt 3" class="cls-1" d="M71.337,58.22C84.318,60.165,96.987,62.481,97,67"/>
  <path id="Kształt_21" data-name="Kształt 21" class="cls-1" d="M71.042,91.095l7.373-10.173"/>
  <path id="Kształt_24" data-name="Kształt 24" class="cls-2" d="M233.981,147.823c-0.149,3.394,15.427,4.893,15.468,5.243,0.027,0.227,6.021-14.088-1.31-19.079a8.96,8.96,0,0,0-13.012,2.533c-1.412,2.238-.316,4.71-0.3,7.617C234.837,145.072,234.086,145.429,233.981,147.823Z"/>
  <path id="Kształt_25" data-name="Kształt 25" class="cls-1" d="M115,190c-0.817-.871,3.324-6.072,3.727-5.433"/>
  <path id="Kształt_23" data-name="Kształt 23" class="cls-1" d="M226,154c3.562-1.813,5.961-4.122,7-7,1.515-4.2-1.244-8.266,1-12,1.843-3.067,5.663-3.972,8-4a10.7,10.7,0,0,1,9,5c1.026,1.59,1.562,7.141,0,14a43.113,43.113,0,0,1-3,9,31.752,31.752,0,0,1-7,9c-3.907,3.53-9.942,5.776-12,7a18.727,18.727,0,0,1-9,3c-0.336.011-.665,0.011-1,0"/>
  <path id="Kształt_26" data-name="Kształt 26" class="cls-1" d="M118.561,192.2c-1.351-1.918,4.829-7.021,4.928-4.879"/>
  <path id="Kształt_28" data-name="Kształt 28" class="cls-2" d="M140.052,173.931C144.01,175.364,145.8,179.71,147,179c0.811-.481-1.008-2.641-1.571-3.878-0.591-1.3-3.011-3.429-3.514-3.277"/>
  <path id="Kształt_27" data-name="Kształt 27" class="cls-1" d="M125,191l2-3"/>
  <path id="Kształt_29" data-name="Kształt 29" class="cls-2" d="M148,170c2.17,2.759,6.57,8.3,7,8s-3.181-6.1-5-9"/>
  <path id="Kształt_22" data-name="Kształt 22" class="cls-1" d="M163,89s-7.266-8.192-9-7"/>
  <path id="Kształt_31" data-name="Kształt 31" class="cls-1" d="M173,186l4-5"/>
  <path id="Kształt_32" data-name="Kształt 32" class="cls-1" d="M178.157,187.179c-1.175-.754,2.037-4.5,2.843-5.179"/>
  <path id="Kształt_33" data-name="Kształt 33" class="cls-1" d="M183.062,187.533c-0.644-.707,1.94-4.517,1.938-4.533"/>
  <path id="Kształt_4" data-name="Kształt 4" class="cls-1" d="M96.035,67.465c4.968-.906,36.977,2.272,38.209,4.2"/>
  <path id="Kształt_34" data-name="Kształt 34" class="cls-2" d="M227.138,153.641c2.835,2.162,8.525,8.145,7.862,9.359-0.379.694-1.834-.276-2.179-0.909-1.7-3.112-5.5-4.933-7.138-6.782"/>
  <path id="Kształt_5" data-name="Kształt 5" class="cls-1" d="M133,73c11.367-8.156,20.414-16.244,26-14,6.529,2.623,6.418,18.477,4,34"/>
  <path id="Kształt_35" data-name="Kształt 35" class="cls-2" d="M224,166c2.794,1.646,4.337,3.292,4,4-0.3.623-2.12-1.9-4.951-.54"/>
  <path id="Kształt_6" data-name="Kształt 6" class="cls-1" d="M159.471,60.023c-0.01.065-13.934,17.631-13.708,17.712"/>
  <path id="Kształt_36" data-name="Kształt 36" class="cls-2" d="M179.261,142.883c1.114-.337,10.143,2,12.739,5.117,2.391,2.866,3.5,6.259,3.83,6.1,0.989-.463,1.262-2.763.17-6.1a11.285,11.285,0,0,0-4-5c-2.878-2.1-7.393-3.236-11.745-3.306"/>
  <path id="Kształt_37" data-name="Kształt 37" class="cls-2" d="M185.015,134.692c3.445,0.552,10.992,5.277,11.016,5.03,0.068-.686-5-5.261-7.951-7.4"/>
  <path id="Kształt_7" data-name="Kształt 7" class="cls-1" d="M163.008,91.842c6.987,11.207,11.112,25.847,10.953,27.1-0.443,3.491-4,2.944-8.218-2.23,1.412,0.18,4.409,17.145,1.257,19.287-1.57,1.067-4.1-4-6.062-2.792-3.77,2.314-10.82,10.123-19.841,12.048"/>
  <path id="Kształt_39" data-name="Kształt 39" class="cls-2" d="M166,92c8.6,3.477,19.681,18.914,20.409,18.679C187.294,110.392,177.8,96.019,173,92"/>
  <path id="Kształt_40" data-name="Kształt 40" class="cls-2" d="M184.092,93c4.98,5.089,15.419,23.729,15.908,24,0.765,0.423-6.945-18.926-11.869-23.787"/>
  <path id="Kształt_38" data-name="Kształt 38" class="cls-2" d="M193.116,130.006C197.793,132.873,206.44,143.453,207,143c0.649-.525-7.3-10.892-10.392-13.944"/>
  <path id="Kształt_8" data-name="Kształt 8" class="cls-1" d="M166,92a48.1,48.1,0,0,1,23,2c10.829,3.75,20.559,12.042,28,25a61.973,61.973,0,0,1,8,32c-0.252,15.244-5.693,25.863-9,29-2.73,2.589-13.316,6.5-26,8-10.56,1.245-16.516.768-18-2-1.2-2.245-.208-5.911,2-8,4.464-4.222,13.7-.438,15-3,1.492-2.938-10.18-10.05-12-20-1.292-7.064,1.525-13.77,5-18a21.559,21.559,0,0,1,33-1"/>
  <path id="Kształt_9" data-name="Kształt 9" class="cls-1" d="M168,169c3.1,4.2,4.788,9.487,3,14-1.087,2.743-4.392,5.679-11,8-6.933,2.436-14.148,3.307-23,3-3.916-.136-7.086-0.821-11-1-6.634-.3-10.8-0.008-13-3-2.231-3.028-1.429-8.04,1-11,3.385-4.125,10.673-5.129,17-1"/>
  <path id="Kształt_10" data-name="Kształt 10" class="cls-1" d="M151,168l-21,8"/>
  <path id="Kształt_11" data-name="Kształt 11" class="cls-1" d="M98,121c1.98,7.035,7.352,9.059,11,5,0.8-.885.483-2.888,1-3,0.545-.118,1.481,2.552,3,4,1.115,1.063,4.172,3.329,7,2a5.975,5.975,0,0,0,3-5"/>
  <path id="Kształt_12" data-name="Kształt 12" class="cls-2" d="M106.034,112c-0.579,3.426,3.688,6.072,3.966,6s5.595-3.16,5-5c-0.561-1.733-3.881-2-5-2-1.384,0-4.262.128-4,1"/>
  <path id="Kształt_14" data-name="Kształt 14" class="cls-1" d="M104,145c0.4,0.838,9.688,3.209,18.262.944"/>
  <path id="Kształt_13" data-name="Kształt 13" class="cls-2" d="M124.782,105a2.923,2.923,0,0,0-2.793,1.862,2.84,2.84,0,0,0,0,1.861,2.575,2.575,0,0,0,1.862,1.862,2.985,2.985,0,0,0,2.233-.819,4.1,4.1,0,0,0,.821-1.9,3.17,3.17,0,0,0-.261-1.936A2.274,2.274,0,0,0,124.782,105Z"/>
  <path id="Kształt_13_kopia" data-name="Kształt 13 kopia" class="cls-2" d="M97.376,105a2.923,2.923,0,0,0-2.793,1.862,2.836,2.836,0,0,0,0,1.861,2.573,2.573,0,0,0,1.862,1.862,2.986,2.986,0,0,0,2.233-.819,4.092,4.092,0,0,0,.82-1.9,3.165,3.165,0,0,0-.261-1.936A2.272,2.272,0,0,0,97.376,105Z"/>
  <path id="Kształt_15" data-name="Kształt 15" class="cls-2" d="M96.216,68.442C94.871,72.707,93.567,79.6,94,83a16.022,16.022,0,0,0,2,6c0.623,1.089,2.732,4.4,4,4,0.921-.294.981-2.422,1-6,0.011-2.03.025-4.579,0-6-0.025-1.39.112-2.991,0-4-0.3-2.723,1.513-8.841,2.768-9.025"/>
  <path id="Kształt_16" data-name="Kształt 16" class="cls-2" d="M109.254,67.223A28.433,28.433,0,0,0,107,76c-0.129,2.117.623,4.091,0.853,6.71,0.152,1.732.622,4.953,0.7,5.5a6.751,6.751,0,0,0,1.09,3.371c0.6,0.95,2.483,2.792,3.358,2.416,1.189-.511.838-3.5,0.974-6.072,0.127-2.4.1-4.521,0.023-6.925a18.646,18.646,0,0,1,.472-5.82,51.633,51.633,0,0,1,1.87-6.148"/>
  <path id="Kształt_17" data-name="Kształt 17" class="cls-2" d="M122.871,70.164A25.4,25.4,0,0,0,121,76a18.776,18.776,0,0,0-.2,5.584A8.513,8.513,0,0,0,122,86c0.653,1.065,1.915,2.254,3,2,0.937-.219,1.6-1.481,2-4a33.751,33.751,0,0,0,0-5,16.258,16.258,0,0,1,1-5c0.16-.452.272-0.479,1.886-3.353"/>
  <path id="Kształt_18" data-name="Kształt 18" class="cls-1" d="M35,200c51.363-1.361,74.637-.183,75-1s-22.544-60.728-22-61-75-2.731-75-2S32.368,199.546,35,200Z"/>
  <path id="Kształt_19" data-name="Kształt 19" class="cls-1" d="M35,201c0.769,0.329,1.341.694,2,3s73.78,0.439,74,0-0.879-3.121,0-4S34.231,200.671,35,201Z"/>
  <path id="Kształt_20" data-name="Kształt 20" class="cls-1" d="M112,204c0.22-.11,27.549-2.156,27-6s-1.439-3.549-1-3-24.012,3.329-25,3S111.78,204.11,112,204Z"/>
</svg>
